<svg width="21" height="20" viewBox="0 0 21 20" fill="none" xmlns="http://www.w3.org/2000/svg">
<path fill-rule="evenodd" clip-rule="evenodd" d="M10.0625 2.29167C5.83407 2.29167 2.40625 5.55626 2.40625 9.58334C2.40625 13.6104 5.83407 16.875 10.0625 16.875C14.2909 16.875 17.7188 13.6104 17.7188 9.58334C17.7188 5.55626 14.2909 2.29167 10.0625 2.29167ZM1.09375 9.58334C1.09375 4.86591 5.1092 1.04167 10.0625 1.04167C15.0158 1.04167 19.0312 4.86591 19.0312 9.58334C19.0312 11.7171 18.2097 13.6681 16.8515 15.1652L19.714 17.8914C19.9703 18.1355 19.9703 18.5312 19.714 18.7753C19.4578 19.0194 19.0422 19.0194 18.786 18.7753L15.9234 16.0491C14.3515 17.3426 12.3029 18.125 10.0625 18.125C5.1092 18.125 1.09375 14.3008 1.09375 9.58334Z" fill="#969696"/>
</svg>
