<svg width="21" height="20" viewBox="0 0 21 20" fill="none" xmlns="http://www.w3.org/2000/svg">
<path fill-rule="evenodd" clip-rule="evenodd" d="M12.7183 12.1073C14.7284 10.1977 14.7284 7.10168 12.7183 5.19208C10.7082 3.28249 7.44913 3.28249 5.43903 5.19208C3.42893 7.10168 3.42893 10.1977 5.43903 12.1073C7.44913 14.0169 10.7082 14.0169 12.7183 12.1073ZM13.8101 15.4497C10.4793 17.5461 5.94731 17.2004 3.01263 14.4124C-0.337542 11.2298 -0.337542 6.06966 3.01263 2.887C6.3628 -0.295665 11.7945 -0.295665 15.1447 2.887C18.0793 5.67495 18.4433 9.98029 16.2365 13.1446L19.9975 16.7175C20.6675 17.354 20.6675 18.3861 19.9975 19.0226C19.3274 19.6591 18.2411 19.6591 17.5711 19.0226L13.8101 15.4497Z" fill="#4B4B4B"/>
</svg>
