<svg width="27" height="26" viewBox="0 0 27 26" fill="none" xmlns="http://www.w3.org/2000/svg">
<path fill-rule="evenodd" clip-rule="evenodd" d="M24.3334 13C24.3334 18.7529 19.4831 23.4166 13.5 23.4166C7.51693 23.4166 2.66669 18.7529 2.66669 13C2.66669 7.24701 7.51693 2.58331 13.5 2.58331C19.4831 2.58331 24.3334 7.24701 24.3334 13ZM16.75 9.87498C16.75 11.6009 15.2949 13 13.5 13C11.7051 13 10.25 11.6009 10.25 9.87498C10.25 8.14909 11.7051 6.74998 13.5 6.74998C15.2949 6.74998 16.75 8.14909 16.75 9.87498ZM13.5 21.8541C15.4327 21.8541 17.2264 21.2816 18.7075 20.3033C19.3617 19.8712 19.6413 19.0481 19.2609 18.3783C18.4725 16.9898 16.8478 16.125 13.4999 16.125C10.1522 16.125 8.52748 16.9898 7.73901 18.3783C7.35865 19.0481 7.63821 19.8712 8.29239 20.3033C9.77355 21.2816 11.5672 21.8541 13.5 21.8541Z" fill="#4B4B4B"/>
</svg>
